<svg xmlns="http://www.w3.org/2000/svg" viewBox="0 0 32 32">
  <!-- Filled favicon based on v4 outline style -->

  <!-- Left page -->
  <path d="M16 26
           L16 6
           C16 6 12 5 5 5.5
           C4 5.6 3.5 6.2 3.5 7
           L3.5 24
           C3.5 24.8 4 25.4 5 25.3
           C12 24.8 16 26 16 26 Z"
        fill="#1565C0"/>

  <!-- Right page -->
  <path d="M16 26
           L16 6
           C16 6 20 5 27 5.5
           C28 5.6 28.5 6.2 28.5 7
           L28.5 24
           C28.5 24.8 28 25.4 27 25.3
           C20 24.8 16 26 16 26 Z"
        fill="#1565C0"/>

  <!-- Hiragana あ on left -->
  <text x="9.5" y="17.5"
        font-family="sans-serif"
        font-size="10"
        font-weight="400"
        fill="#FFFFFF"
        text-anchor="middle">あ</text>

  <!-- Latin A on right -->
  <text x="22.5" y="18"
        font-family="serif"
        font-size="11"
        font-weight="600"
        fill="#FFFFFF"
        text-anchor="middle">A</text>
</svg>
