<svg xmlns="http://www.w3.org/2000/svg" viewBox="0 0 512 512">
  <!-- Variation 4 outline only: Uniform navy blue -->

  <!-- Left page outline -->
  <path d="M256 380
           L256 115
           C256 115 192 95 102 110
           C90 112 82 122 82 134
           L82 355
           C82 367 90 377 102 375
           C192 360 256 380 256 380 Z"
        fill="none"
        stroke="#1565C0"
        stroke-width="12"
        stroke-linejoin="round"/>

  <!-- Right page outline -->
  <path d="M256 380
           L256 115
           C256 115 320 95 410 110
           C422 112 430 122 430 134
           L430 355
           C430 367 422 377 410 375
           C320 360 256 380 256 380 Z"
        fill="none"
        stroke="#1565C0"
        stroke-width="12"
        stroke-linejoin="round"/>

  <!-- Hiragana あ on left page -->
  <text x="170" y="275"
        font-family="'Hiragino Kaku Gothic Pro', 'Yu Gothic', 'Noto Sans JP', sans-serif"
        font-size="130"
        font-weight="400"
        fill="#1565C0"
        text-anchor="middle">あ</text>

  <!-- Latin A on right page -->
  <text x="342" y="288"
        font-family="Georgia, 'Times New Roman', serif"
        font-size="140"
        font-weight="600"
        fill="#1565C0"
        text-anchor="middle">A</text>
</svg>
